{"asset":{"version":"2.0","generator":"VECTARY"},"nodes":[{"translation":[-0.19666319559758996,-0.03135851083770167,-0.1640997575573436],"scale":[1,1,1],"rotation":[0.06900154606751058,-0.8702774504747156,0.12757028973041534,0.4707247253051621],"name":"Camera","camera":0},{"translation":[0,0,0],"scale":[0.0003570716164931507,0.0003570716164931507,0.0003570716164931507],"rotation":[-0.7071067811865475,0,0,0.7071067811865476],"name":"Neon Sign Open","children":[2,3,4,5,6]},{"translation":[0,0,0],"scale":[10,10,10],"rotation":[0,0,0,1],"name":"Glass neon tube open sign","mesh":0},{"translation":[0,0,0],"scale":[10,10,10],"rotation":[0,0,0,1],"name":"Glass neon tube","mesh":1},{"translation":[0,0,0],"scale":[10,10,10],"rotation":[0,0,0,1],"name":"Background","mesh":2},{"translation":[0,0,0],"scale":[10,10,10],"rotation":[0,0,0,1],"name":"Metal hatches","mesh":3},{"translation":[0,0,0],"scale":[2.80055863812738,2.80055863812738,2.80055863812738],"rotation":[0,0,0,1],"name":"Background","children":[7,8,9,10,11,12,13,14,15,16,17,18,19]},{"translation":[90.92011913839372,0.033725218141881896,-30.508246983101124],"scale":[3.888380401614698,3.8883804016146986,3.888380401614698],"rotation":[0,-0.49999999999999983,0,0.8660254037844387],"name":"Background","mesh":4},{"translation":[103.29287742414074,-6.750635495227982,-26.931581827075995],"scale":[3.888380401614698,4.6660564819376384,4.666056481937638],"rotation":[0,-0.49999999999999983,0,0.8660254037844387],"name":"Background","mesh":5},{"translation":[115.66563570988775,-13.534996208597839,-23.35491667105086],"scale":[3.888380401614698,5.4437325622605774,5.443732562260576],"rotation":[0,-0.4999999999999997,0,0.8660254037844388],"name":"Background","mesh":6},{"translation":[128.0383939956348,-20.319356921967696,-19.77825151502573],"scale":[3.888380401614698,6.221408642583517,6.221408642583516],"rotation":[0,-0.49999999999999983,0,0.8660254037844387],"name":"Background","mesh":7},{"translation":[140.41115228138182,-27.10371763533756,-16.2015863590006],"scale":[3.888380401614698,6.999084722906456,6.999084722906455],"rotation":[0,-0.49999999999999983,0,0.8660254037844387],"name":"Background","mesh":8},{"translation":[152.78391056712886,-33.888078348707424,-12.624921202975472],"scale":[3.888380401614698,7.776760803229396,7.7767608032293944],"rotation":[0,-0.49999999999999983,0,0.8660254037844387],"name":"Background","mesh":9},{"translation":[165.1566688528759,-40.67243906207729,-9.048256046950343],"scale":[3.888380401614698,8.554436883552336,8.554436883552334],"rotation":[0,-0.49999999999999983,0,0.8660254037844387],"name":"Background","mesh":10},{"translation":[177.5294271386229,-47.45679977544715,-5.471590890925214],"scale":[3.888380401614698,9.332112963875275,9.332112963875273],"rotation":[0,-0.49999999999999983,0,0.8660254037844387],"name":"Background","mesh":11},{"translation":[189.90218542436995,-54.241160488817,-1.894925734900081],"scale":[3.888380401614698,10.109789044198216,10.109789044198214],"rotation":[0,-0.49999999999999983,0,0.8660254037844387],"name":"Background","mesh":12},{"translation":[202.274943710117,-61.02552120218685,1.6817394211250445],"scale":[3.888380401614698,10.887465124521155,10.887465124521151],"rotation":[0,-0.4999999999999997,0,0.8660254037844388],"name":"Background","mesh":13},{"translation":[214.64770199586403,-67.80988191555672,5.2584045771501735],"scale":[3.888380401614698,11.665141204844094,11.665141204844092],"rotation":[0,-0.49999999999999983,0,0.8660254037844387],"name":"Background","mesh":14},{"translation":[227.02046028161107,-74.59424262892658,8.83506973317531],"scale":[3.888380401614698,12.442817285167035,12.442817285167031],"rotation":[0,-0.49999999999999983,0,0.8660254037844387],"name":"Background","mesh":15},{"translation":[239.39321856735808,-81.37860334229644,12.411734889200439],"scale":[3.888380401614698,13.220493365489974,13.22049336548997],"rotation":[0,-0.49999999999999983,0,0.8660254037844387],"name":"Background","mesh":16}],"cameras":[{"name":"Camera","type":"perspective","extras":{"targetDistance":0.24859676550148427},"perspective":{"aspectRatio":1.234910277324633,"yfov":0.6108652381980153,"zfar":29.409618050861493,"znear":0.010742864582962749}}],"materials":[{"pbrMetallicRoughness":{"baseColorFactor":[1,0,0.9239933396846823,1],"metallicFactor":0.16,"roughnessFactor":0},"name":"glass neon tube","emissiveFactor":[1,0,0.9647058823529412],"extensions":{"KHR_materials_clearcoat":{"clearcoatFactor":1,"clearcoatRoughnessFactor":0.2}},"alphaMode":"OPAQUE","doubleSided":false},{"pbrMetallicRoughness":{"baseColorFactor":[0,0.36859092219748707,1,1],"metallicFactor":0.48,"roughnessFactor":0},"name":"Classic Calm","emissiveFactor":[0,0.4666666666666667,1],"extensions":{"KHR_materials_clearcoat":{"clearcoatFactor":0.28,"clearcoatRoughnessFactor":0.2}},"alphaMode":"OPAQUE","doubleSided":false},{"pbrMetallicRoughness":{"baseColorFactor":[0.07592611945626479,0.07592611945626479,0.07592611945626479,1],"metallicFactor":1,"roughnessFactor":0.26},"name":"Aluminum Satin","emissiveFactor":[0,0,0],"extensions":{},"alphaMode":"OPAQUE","doubleSided":false},{"pbrMetallicRoughness":{"baseColorFactor":[0.3392233349353267,0.3392233349353267,0.3392233349353267,1],"metallicFactor":1,"roughnessFactor":0.5},"name":"Chrome Satin","emissiveFactor":[0,0,0],"extensions":{},"alphaMode":"OPAQUE","doubleSided":false},{"pbrMetallicRoughness":{"baseColorFactor":[0.025371276904734584,0.025371276904734584,0.025371276904734584,1],"metallicFactor":1,"roughnessFactor":0.29},"name":"Aluminum Satin 1","emissiveTexture":{"index":0,"extensions":{"KHR_texture_transform":{"offset":[0,0],"scale":[1,1],"rotation":0}},"texCoord":0},"emissiveFactor":[0,0,0],"extensions":{},"alphaMode":"OPAQUE","doubleSided":false}],"meshes":[{"primitives":[{"mode":4,"attributes":{"POSITION":1,"NORMAL":2,"TEXCOORD_0":3},"material":0,"indices":0}]},{"primitives":[{"mode":4,"attributes":{"POSITION":5,"NORMAL":6,"TEXCOORD_0":7},"material":1,"indices":4}]},{"primitives":[{"mode":4,"attributes":{"POSITION":9,"NORMAL":10,"TEXCOORD_0":11},"material":2,"indices":8}]},{"primitives":[{"mode":4,"attributes":{"POSITION":13,"NORMAL":14,"TEXCOORD_0":15},"material":3,"indices":12}]},{"primitives":[{"mode":4,"attributes":{"POSITION":17,"NORMAL":18,"TEXCOORD_0":19},"material":4,"indices":16}]},{"primitives":[{"mode":4,"attributes":{"POSITION":21,"NORMAL":22,"TEXCOORD_0":23},"material":4,"indices":20}]},{"primitives":[{"mode":4,"attributes":{"POSITION":25,"NORMAL":26,"TEXCOORD_0":27},"material":4,"indices":24}]},{"primitives":[{"mode":4,"attributes":{"POSITION":29,"NORMAL":30,"TEXCOORD_0":31},"material":4,"indices":28}]},{"primitives":[{"mode":4,"attributes":{"POSITION":33,"NORMAL":34,"TEXCOORD_0":35},"material":4,"indices":32}]},{"primitives":[{"mode":4,"attributes":{"POSITION":37,"NORMAL":38,"TEXCOORD_0":39},"material":4,"indices":36}]},{"primitives":[{"mode":4,"attributes":{"POSITION":41,"NORMAL":42,"TEXCOORD_0":43},"material":4,"indices":40}]},{"primitives":[{"mode":4,"attributes":{"POSITION":45,"NORMAL":46,"TEXCOORD_0":47},"material":4,"indices":44}]},{"primitives":[{"mode":4,"attributes":{"POSITION":49,"NORMAL":50,"TEXCOORD_0":51},"material":4,"indices":48}]},{"primitives":[{"mode":4,"attributes":{"POSITION":53,"NORMAL":54,"TEXCOORD_0":55},"material":4,"indices":52}]},{"primitives":[{"mode":4,"attributes":{"POSITION":57,"NORMAL":58,"TEXCOORD_0":59},"material":4,"indices":56}]},{"primitives":[{"mode":4,"attributes":{"POSITION":61,"NORMAL":62,"TEXCOORD_0":63},"material":4,"indices":60}]},{"primitives":[{"mode":4,"attributes":{"POSITION":65,"NORMAL":66,"TEXCOORD_0":67},"material":4,"indices":64}]}],"accessors":[{"bufferView":0,"byteOffset":0,"componentType":5125,"count":13608,"type":"SCALAR"},{"bufferView":1,"byteOffset":0,"componentType":5126,"count":9072,"max":[1.0409013032913208,29.05711555480957,18.182878494262695],"min":[-0.45696404576301575,-8.992642402648926,6.376901149749756],"type":"VEC3"},{"bufferView":2,"byteOffset":0,"componentType":5126,"count":9072,"type":"VEC3"},{"bufferView":3,"byteOffset":0,"componentType":5126,"count":9072,"type":"VEC2"},{"bufferView":4,"byteOffset":0,"componentType":5125,"count":6048,"type":"SCALAR"},{"bufferView":5,"byteOffset":0,"componentType":5126,"count":4032,"max":[1.1168948411941528,29.511775970458984,21.879560470581055],"min":[-0.3809989094734192,-11.87536907196045,1.6203831434249878],"type":"VEC3"},{"bufferView":6,"byteOffset":0,"componentType":5126,"count":4032,"type":"VEC3"},{"bufferView":7,"byteOffset":0,"componentType":5126,"count":4032,"type":"VEC2"},{"bufferView":8,"byteOffset":0,"componentType":5125,"count":8538,"type":"SCALAR"},{"bufferView":9,"byteOffset":0,"componentType":5126,"count":5641,"max":[1.5939995050430298,31.003400802612305,23.385915756225586],"min":[-0.19050905108451843,-13.561503410339355,9.536742595628311e-7],"type":"VEC3"},{"bufferView":10,"byteOffset":0,"componentType":5126,"count":5641,"type":"VEC3"},{"bufferView":11,"byteOffset":0,"componentType":5126,"count":5641,"type":"VEC2"},{"bufferView":12,"byteOffset":0,"componentType":5125,"count":8700,"type":"SCALAR"},{"bufferView":13,"byteOffset":0,"componentType":5126,"count":5747,"max":[1.5806450843811035,29.355226516723633,21.957202911376953],"min":[-0.5428588390350342,-11.71821117401123,1.5525845289230347],"type":"VEC3"},{"bufferView":14,"byteOffset":0,"componentType":5126,"count":5747,"type":"VEC3"},{"bufferView":15,"byteOffset":0,"componentType":5126,"count":5747,"type":"VEC2"},{"bufferView":16,"byteOffset":0,"componentType":5125,"count":8538,"type":"SCALAR"},{"bufferView":17,"byteOffset":0,"componentType":5126,"count":1800,"max":[21.511838912963867,31.003400802612305,30.46634864807129],"min":[-3.7115070819854736,-13.561504364013672,15.188000679016113],"type":"VEC3"},{"bufferView":18,"byteOffset":0,"componentType":5126,"count":1800,"type":"VEC3"},{"bufferView":19,"byteOffset":0,"componentType":5126,"count":1800,"type":"VEC2"},{"bufferView":20,"byteOffset":0,"componentType":5125,"count":8538,"type":"SCALAR"},{"bufferView":21,"byteOffset":0,"componentType":5126,"count":1933,"max":[22.501598358154297,31.003400802612305,26.268552780151367],"min":[-6.56655216217041,-13.561502456665039,11.289570808410645],"type":"VEC3"},{"bufferView":22,"byteOffset":0,"componentType":5126,"count":1933,"type":"VEC3"},{"bufferView":23,"byteOffset":0,"componentType":5126,"count":1933,"type":"VEC2"},{"bufferView":24,"byteOffset":0,"componentType":5125,"count":8538,"type":"SCALAR"},{"bufferView":25,"byteOffset":0,"componentType":5126,"count":2152,"max":[23.35191535949707,31.003400802612305,23.344648361206055],"min":[-9.36637020111084,-13.561503410339355,8.520153045654297],"type":"VEC3"},{"bufferView":26,"byteOffset":0,"componentType":5126,"count":2152,"type":"VEC3"},{"bufferView":27,"byteOffset":0,"componentType":5126,"count":2152,"type":"VEC2"},{"bufferView":28,"byteOffset":0,"componentType":5125,"count":8538,"type":"SCALAR"},{"bufferView":29,"byteOffset":0,"componentType":5126,"count":2240,"max":[24.093523025512695,31.003400802612305,21.22757339477539],"min":[-12.192255973815918,-13.561503410339355,6.453224182128906],"type":"VEC3"},{"bufferView":30,"byteOffset":0,"componentType":5126,"count":2240,"type":"VEC3"},{"bufferView":31,"byteOffset":0,"componentType":5126,"count":2240,"type":"VEC2"},{"bufferView":32,"byteOffset":0,"componentType":5125,"count":8538,"type":"SCALAR"},{"bufferView":33,"byteOffset":0,"componentType":5126,"count":2335,"max":[24.74640464782715,31.003400802612305,19.75382423400879],"min":[-15.073185920715332,-13.561504364013672,4.862216949462891],"type":"VEC3"},{"bufferView":34,"byteOffset":0,"componentType":5126,"count":2335,"type":"VEC3"},{"bufferView":35,"byteOffset":0,"componentType":5126,"count":2335,"type":"VEC2"},{"bufferView":36,"byteOffset":0,"componentType":5125,"count":8538,"type":"SCALAR"},{"bufferView":37,"byteOffset":0,"componentType":5126,"count":2348,"max":[25.313268661499023,31.003400802612305,18.995830535888672],"min":[-18.024459838867188,-13.561503410339355,3.621669054031372],"type":"VEC3"},{"bufferView":38,"byteOffset":0,"componentType":5126,"count":2348,"type":"VEC3"},{"bufferView":39,"byteOffset":0,"componentType":5126,"count":2348,"type":"VEC2"},{"bufferView":40,"byteOffset":0,"componentType":5125,"count":8538,"type":"SCALAR"},{"bufferView":41,"byteOffset":0,"componentType":5126,"count":2362,"max":[25.713420867919922,31.003400802612305,18.49506950378418],"min":[-21.07780647277832,-13.561502456665039,2.6446986198425293],"type":"VEC3"},{"bufferView":42,"byteOffset":0,"componentType":5126,"count":2362,"type":"VEC3"},{"bufferView":43,"byteOffset":0,"componentType":5126,"count":2362,"type":"VEC2"},{"bufferView":44,"byteOffset":0,"componentType":5125,"count":8538,"type":"SCALAR"},{"bufferView":45,"byteOffset":0,"componentType":5126,"count":2324,"max":[26.127904891967773,31.003400802612305,18.191835403442383],"min":[-24.245603561401367,-13.561504364013672,1.8612468242645264],"type":"VEC3"},{"bufferView":46,"byteOffset":0,"componentType":5126,"count":2324,"type":"VEC3"},{"bufferView":47,"byteOffset":0,"componentType":5126,"count":2324,"type":"VEC2"},{"bufferView":48,"byteOffset":0,"componentType":5125,"count":8538,"type":"SCALAR"},{"bufferView":49,"byteOffset":0,"componentType":5126,"count":2404,"max":[26.4218807220459,31.003400802612305,18.031272888183594],"min":[-27.526187896728516,-13.561503410339355,1.205746054649353],"type":"VEC3"},{"bufferView":50,"byteOffset":0,"componentType":5126,"count":2404,"type":"VEC3"},{"bufferView":51,"byteOffset":0,"componentType":5126,"count":2404,"type":"VEC2"},{"bufferView":52,"byteOffset":0,"componentType":5125,"count":8538,"type":"SCALAR"},{"bufferView":53,"byteOffset":0,"componentType":5126,"count":2358,"max":[26.694869995117188,31.003400802612305,17.981277465820312],"min":[-30.99256706237793,-13.561502456665039,0.6810756325721741],"type":"VEC3"},{"bufferView":54,"byteOffset":0,"componentType":5126,"count":2358,"type":"VEC3"},{"bufferView":55,"byteOffset":0,"componentType":5126,"count":2358,"type":"VEC2"},{"bufferView":56,"byteOffset":0,"componentType":5125,"count":8538,"type":"SCALAR"},{"bufferView":57,"byteOffset":0,"componentType":5126,"count":2298,"max":[26.969072341918945,31.003400802612305,18.017847061157227],"min":[-34.5449104309082,-13.561503410339355,0.2660553455352783],"type":"VEC3"},{"bufferView":58,"byteOffset":0,"componentType":5126,"count":2298,"type":"VEC3"},{"bufferView":59,"byteOffset":0,"componentType":5126,"count":2298,"type":"VEC2"},{"bufferView":60,"byteOffset":0,"componentType":5125,"count":8538,"type":"SCALAR"},{"bufferView":61,"byteOffset":0,"componentType":5126,"count":2292,"max":[27.18757438659668,31.003400802612305,18.1225528717041],"min":[-38.28833770751953,-13.561503410339355,-0.10827626287937164],"type":"VEC3"},{"bufferView":62,"byteOffset":0,"componentType":5126,"count":2292,"type":"VEC3"},{"bufferView":63,"byteOffset":0,"componentType":5126,"count":2292,"type":"VEC2"},{"bufferView":64,"byteOffset":0,"componentType":5125,"count":8538,"type":"SCALAR"},{"bufferView":65,"byteOffset":0,"componentType":5126,"count":2279,"max":[27.5163631439209,31.003400802612305,18.280916213989258],"min":[-42.09955978393555,-13.561504364013672,-0.40985873341560364],"type":"VEC3"},{"bufferView":66,"byteOffset":0,"componentType":5126,"count":2279,"type":"VEC3"},{"bufferView":67,"byteOffset":0,"componentType":5126,"count":2279,"type":"VEC2"}],"bufferViews":[{"buffer":0,"byteOffset":0,"byteLength":54432,"target":34963},{"buffer":0,"byteOffset":54432,"byteLength":108864,"target":34962},{"buffer":0,"byteOffset":163296,"byteLength":108864,"target":34962},{"buffer":0,"byteOffset":272160,"byteLength":72576,"target":34962},{"buffer":0,"byteOffset":344736,"byteLength":24192,"target":34963},{"buffer":0,"byteOffset":368928,"byteLength":48384,"target":34962},{"buffer":0,"byteOffset":417312,"byteLength":48384,"target":34962},{"buffer":0,"byteOffset":465696,"byteLength":32256,"target":34962},{"buffer":0,"byteOffset":497952,"byteLength":34152,"target":34963},{"buffer":0,"byteOffset":532104,"byteLength":67692,"target":34962},{"buffer":0,"byteOffset":599796,"byteLength":67692,"target":34962},{"buffer":0,"byteOffset":667488,"byteLength":45128,"target":34962},{"buffer":0,"byteOffset":712616,"byteLength":34800,"target":34963},{"buffer":0,"byteOffset":747416,"byteLength":68964,"target":34962},{"buffer":0,"byteOffset":816380,"byteLength":68964,"target":34962},{"buffer":0,"byteOffset":885344,"byteLength":45976,"target":34962},{"buffer":0,"byteOffset":931320,"byteLength":34152,"target":34963},{"buffer":0,"byteOffset":965472,"byteLength":21600,"target":34962},{"buffer":0,"byteOffset":987072,"byteLength":21600,"target":34962},{"buffer":0,"byteOffset":1008672,"byteLength":14400,"target":34962},{"buffer":0,"byteOffset":1023072,"byteLength":34152,"target":34963},{"buffer":0,"byteOffset":1057224,"byteLength":23196,"target":34962},{"buffer":0,"byteOffset":1080420,"byteLength":23196,"target":34962},{"buffer":0,"byteOffset":1103616,"byteLength":15464,"target":34962},{"buffer":0,"byteOffset":1119080,"byteLength":34152,"target":34963},{"buffer":0,"byteOffset":1153232,"byteLength":25824,"target":34962},{"buffer":0,"byteOffset":1179056,"byteLength":25824,"target":34962},{"buffer":0,"byteOffset":1204880,"byteLength":17216,"target":34962},{"buffer":0,"byteOffset":1222096,"byteLength":34152,"target":34963},{"buffer":0,"byteOffset":1256248,"byteLength":26880,"target":34962},{"buffer":0,"byteOffset":1283128,"byteLength":26880,"target":34962},{"buffer":0,"byteOffset":1310008,"byteLength":17920,"target":34962},{"buffer":0,"byteOffset":1327928,"byteLength":34152,"target":34963},{"buffer":0,"byteOffset":1362080,"byteLength":28020,"target":34962},{"buffer":0,"byteOffset":1390100,"byteLength":28020,"target":34962},{"buffer":0,"byteOffset":1418120,"byteLength":18680,"target":34962},{"buffer":0,"byteOffset":1436800,"byteLength":34152,"target":34963},{"buffer":0,"byteOffset":1470952,"byteLength":28176,"target":34962},{"buffer":0,"byteOffset":1499128,"byteLength":28176,"target":34962},{"buffer":0,"byteOffset":1527304,"byteLength":18784,"target":34962},{"buffer":0,"byteOffset":1546088,"byteLength":34152,"target":34963},{"buffer":0,"byteOffset":1580240,"byteLength":28344,"target":34962},{"buffer":0,"byteOffset":1608584,"byteLength":28344,"target":34962},{"buffer":0,"byteOffset":1636928,"byteLength":18896,"target":34962},{"buffer":0,"byteOffset":1655824,"byteLength":34152,"target":34963},{"buffer":0,"byteOffset":1689976,"byteLength":27888,"target":34962},{"buffer":0,"byteOffset":1717864,"byteLength":27888,"target":34962},{"buffer":0,"byteOffset":1745752,"byteLength":18592,"target":34962},{"buffer":0,"byteOffset":1764344,"byteLength":34152,"target":34963},{"buffer":0,"byteOffset":1798496,"byteLength":28848,"target":34962},{"buffer":0,"byteOffset":1827344,"byteLength":28848,"target":34962},{"buffer":0,"byteOffset":1856192,"byteLength":19232,"target":34962},{"buffer":0,"byteOffset":1875424,"byteLength":34152,"target":34963},{"buffer":0,"byteOffset":1909576,"byteLength":28296,"target":34962},{"buffer":0,"byteOffset":1937872,"byteLength":28296,"target":34962},{"buffer":0,"byteOffset":1966168,"byteLength":18864,"target":34962},{"buffer":0,"byteOffset":1985032,"byteLength":34152,"target":34963},{"buffer":0,"byteOffset":2019184,"byteLength":27576,"target":34962},{"buffer":0,"byteOffset":2046760,"byteLength":27576,"target":34962},{"buffer":0,"byteOffset":2074336,"byteLength":18384,"target":34962},{"buffer":0,"byteOffset":2092720,"byteLength":34152,"target":34963},{"buffer":0,"byteOffset":2126872,"byteLength":27504,"target":34962},{"buffer":0,"byteOffset":2154376,"byteLength":27504,"target":34962},{"buffer":0,"byteOffset":2181880,"byteLength":18336,"target":34962},{"buffer":0,"byteOffset":2200216,"byteLength":34152,"target":34963},{"buffer":0,"byteOffset":2234368,"byteLength":27348,"target":34962},{"buffer":0,"byteOffset":2261716,"byteLength":27348,"target":34962},{"buffer":0,"byteOffset":2289064,"byteLength":18232,"target":34962}],"textures":[{"sampler":0,"source":0}],"images":[{"uri":"Radial_Gradient_Texture.jpg","mimeType":"image/jpeg"}],"samplers":[{"wrapS":10497,"wrapT":10497}],"scene":0,"scenes":[{"nodes":[0,1],"name":"Project Name"}],"extensionsUsed":["KHR_texture_transform","KHR_materials_clearcoat"],"buffers":[{"byteLength":2307296,"uri":"ProjectName.bin"}]}